<svg width="103" height="102" viewBox="0 0 103 102" fill="none" xmlns="http://www.w3.org/2000/svg">
<path d="M83.6367 35.9887C88.7896 35.9887 92.967 31.8114 92.967 26.6584C92.967 21.5054 88.7896 17.3281 83.6367 17.3281C78.4837 17.3281 74.3063 21.5054 74.3063 26.6584C74.3063 31.8114 78.4837 35.9887 83.6367 35.9887Z" stroke="#055FB4" stroke-width="4" stroke-linecap="round" stroke-linejoin="round"/>
<path d="M19.6568 35.9887C24.8098 35.9887 28.9871 31.8114 28.9871 26.6584C28.9871 21.5054 24.8098 17.3281 19.6568 17.3281C14.5038 17.3281 10.3265 21.5054 10.3265 26.6584C10.3265 31.8114 14.5038 35.9887 19.6568 35.9887Z" stroke="#055FB4" stroke-width="4" stroke-linecap="round" stroke-linejoin="round"/>
<path d="M3.66345 98.635V62.6466C3.66345 62.6466 3.66345 50.6505 15.6596 50.6505H19.7249" stroke="#055FB4" stroke-width="4" stroke-linecap="round" stroke-linejoin="round"/>
<path d="M99.6978 98.635V62.6466C99.6978 62.6466 99.6978 50.6505 87.7016 50.6505H83.6363" stroke="#055FB4" stroke-width="4" stroke-linecap="round" stroke-linejoin="round"/>
<path d="M51.6462 26.6583C58.2715 26.6583 63.6423 21.2875 63.6423 14.6622C63.6423 8.03692 58.2715 2.66608 51.6462 2.66608C45.0209 2.66608 39.6501 8.03692 39.6501 14.6622C39.6501 21.2875 45.0209 26.6583 51.6462 26.6583Z" stroke="#055FB4" stroke-width="4" stroke-linecap="round" stroke-linejoin="round"/>
<path d="M27.6544 98.6351V50.6507C27.6544 50.6507 27.6544 38.6545 39.6505 38.6545H63.6427C63.6427 38.6545 75.6388 38.6545 75.6388 50.6507V98.6351" stroke="#055FB4" stroke-width="4" stroke-linecap="round" stroke-linejoin="round"/>
</svg>
