<svg width="27" height="21" viewBox="0 0 27 21" fill="none" xmlns="http://www.w3.org/2000/svg">
<path d="M18.2007 12.1637L23.1435 4.74557" stroke="white" stroke-width="2" stroke-miterlimit="10"/>
<path d="M11.4868 11.1791L15.4213 13.1483" stroke="white" stroke-width="2" stroke-miterlimit="10"/>
<path d="M4.03711 16.2444L8.63587 11.6417" stroke="white" stroke-width="2" stroke-miterlimit="10"/>
<path d="M2.7794 19.2813C3.76213 19.2813 4.5588 18.4846 4.5588 17.5019C4.5588 16.5192 3.76213 15.7225 2.7794 15.7225C1.79666 15.7225 1 16.5192 1 17.5019C1 18.4846 1.79666 19.2813 2.7794 19.2813Z" stroke="white" stroke-width="2" stroke-linecap="round" stroke-linejoin="round"/>
<path d="M9.89707 12.1637C10.8798 12.1637 11.6765 11.367 11.6765 10.3843C11.6765 9.40157 10.8798 8.6049 9.89707 8.6049C8.91434 8.6049 8.11768 9.40157 8.11768 10.3843C8.11768 11.367 8.91434 12.1637 9.89707 12.1637Z" stroke="white" stroke-width="2" stroke-linecap="round" stroke-linejoin="round"/>
<path d="M17.0147 15.7225C17.9975 15.7225 18.7941 14.9258 18.7941 13.9431C18.7941 12.9604 17.9975 12.1637 17.0147 12.1637C16.032 12.1637 15.2354 12.9604 15.2354 13.9431C15.2354 14.9258 16.032 15.7225 17.0147 15.7225Z" stroke="white" stroke-width="2" stroke-linecap="round" stroke-linejoin="round"/>
<path d="M24.1319 5.0461C25.1147 5.0461 25.9113 4.24944 25.9113 3.2667C25.9113 2.28397 25.1147 1.4873 24.1319 1.4873C23.1492 1.4873 22.3525 2.28397 22.3525 3.2667C22.3525 4.24944 23.1492 5.0461 24.1319 5.0461Z" stroke="white" stroke-width="2" stroke-linecap="round" stroke-linejoin="round"/>
</svg>
