<svg width="22" height="32" viewBox="0 0 22 32" fill="none" xmlns="http://www.w3.org/2000/svg">
<path fill-rule="evenodd" clip-rule="evenodd" d="M3 0H19C20.7 0 22 1.3 22 3V29C22 30.7 20.7 32 19 32H3C1.3 32 0 30.7 0 29V3C0 1.3 1.3 0 3 0ZM4 2H18C19.1 2 20 2.9 20 4V28C20 29.1 19.1 30 18 30H4C2.9 30 2 29.1 2 28V4C2 2.9 2.9 2 4 2ZM11 24C12.1 24 13 24.9 13 26C13 27.1 12.1 28 11 28C9.9 28 9 27.1 9 26C9 24.9 9.9 24 11 24ZM9 4H13C13.6 4 14 4.4 14 5C14 5.6 13.6 6 13 6H9C8.4 6 8 5.6 8 5C8 4.4 8.4 4 9 4Z" fill="#ffffff"/>
</svg>
