<svg width="32" height="32" viewBox="0 0 32 32" fill="none" xmlns="http://www.w3.org/2000/svg">
<path fill-rule="evenodd" clip-rule="evenodd" d="M3 0H5C6.7 0 8 1.3 8 3V29C8 30.7 6.7 32 5 32H3C1.3 32 0 30.7 0 29V3C0 1.3 1.3 0 3 0ZM4 2C5.1 2 6 2.9 6 4V28C6 29.1 5.1 30 4 30C2.9 30 2 29.1 2 28V4C2 2.9 2.9 2 4 2ZM15 12H17C18.7 12 20 13.3 20 15V29C20 30.7 18.7 32 17 32H15C13.3 32 12 30.7 12 29V15C12 13.3 13.3 12 15 12ZM16 14C17.1 14 18 14.9 18 16V28C18 29.1 17.1 30 16 30C14.9 30 14 29.1 14 28V16C14 14.9 14.9 14 16 14ZM27 6H29C30.7 6 32 7.3 32 9V29C32 30.7 30.7 32 29 32H27C25.3 32 24 30.7 24 29V9C24 7.3 25.3 6 27 6ZM28 8C29.1 8 30 8.9 30 10V28C30 29.1 29.1 30 28 30C26.9 30 26 29.1 26 28V10C26 8.9 26.9 8 28 8Z" fill="#ffffff"/>
</svg>
