<svg width="33" height="17" viewBox="0 0 33 17" fill="none" xmlns="http://www.w3.org/2000/svg">
<path fill-rule="evenodd" clip-rule="evenodd" d="M0.548501 6.85662L1.8727 8.18082L0.548501 9.50501C-0.182834 8.77368 -0.182834 7.58795 0.548501 6.85662ZM3.29446 6.94999C2.37844 7.67507 1.8727 8.18082 1.8727 8.18082C0.548501 6.85662 0.549203 6.85592 0.54996 6.85516L0.551749 6.85338L0.556317 6.84884L0.569393 6.83592L0.611177 6.79515C0.645923 6.76151 0.694413 6.71512 0.756212 6.65731C0.879767 6.54172 1.05678 6.38024 1.28379 6.1835C1.73732 5.79044 2.39322 5.2542 3.22365 4.66103C4.8772 3.47993 7.26212 2.04483 10.1512 1.08181C13.048 0.116196 16.4887 -0.386097 20.2031 0.356773C23.9313 1.10241 27.8031 3.07663 31.5831 6.85662C32.3144 7.58795 32.3144 8.77368 31.5831 9.50501C27.8031 13.285 23.9313 15.2592 20.2031 16.0049C16.4887 16.7477 13.048 16.2454 10.1512 15.2798C7.26212 14.3168 4.8772 12.8817 3.22365 11.7006C2.39322 11.1074 1.73732 10.5712 1.28379 10.1781C1.05678 9.98139 0.879767 9.81991 0.756212 9.70432C0.694413 9.64651 0.645923 9.60012 0.611177 9.56648L0.569393 9.52571L0.556317 9.5128L0.551749 9.50825L0.54996 9.50647C0.549203 9.50572 0.548501 9.50501 1.8727 8.18082C1.8727 8.18082 2.37844 8.68656 3.29446 9.41164C7.07521 12.4043 17.8451 19.1335 28.8916 9.46207C29.3471 9.06333 29.803 8.63672 30.2589 8.18082C29.803 7.72491 29.3471 7.2983 28.8916 6.89956C17.8451 -2.77186 7.07521 3.9573 3.29446 6.94999Z" fill="white"/>
<path fill-rule="evenodd" clip-rule="evenodd" d="M21.4867 8.18074C21.4867 11.1747 19.0597 13.6017 16.0657 13.6017C13.0718 13.6017 10.6448 11.1747 10.6448 8.18074C10.6448 5.18682 13.0718 2.75977 16.0657 2.75977C19.0597 2.75977 21.4867 5.18682 21.4867 8.18074ZM19.614 8.18074C19.614 10.1404 18.0254 11.729 16.0657 11.729C14.1061 11.729 12.5175 10.1404 12.5175 8.18074C12.5175 6.22108 14.1061 4.63246 16.0657 4.63246C18.0254 4.63246 19.614 6.22108 19.614 8.18074Z" fill="white"/>
</svg>
