<svg width="30" height="30" viewBox="0 0 30 30" fill="none" xmlns="http://www.w3.org/2000/svg">
<path fill-rule="evenodd" clip-rule="evenodd" d="M15 0C6.75 0 0 6.75 0 15C0 23.25 6.75 30 15 30C23.25 30 30 23.25 30 15C30 6.75 23.25 0 15 0ZM15 28.125C7.78125 28.125 1.875 22.2188 1.875 15C1.875 7.78125 7.78125 1.875 15 1.875C22.2188 1.875 28.125 7.78125 28.125 15C28.125 22.2188 22.2188 28.125 15 28.125Z" fill="#6294DD"/>
<path fill-rule="evenodd" clip-rule="evenodd" d="M20.157 11.5312L13.5007 18.1875C13.1257 18.5625 13.1257 19.125 13.5007 19.4063C13.8757 19.7813 14.4382 19.7813 14.7195 19.4063L21.3757 12.75C21.7507 12.375 21.7507 11.8125 21.3757 11.5312C21.0945 11.1563 20.532 11.1563 20.157 11.5312Z" fill="#6294DD"/>
<path fill-rule="evenodd" clip-rule="evenodd" d="M10.875 14.3438L14.7188 18.1875C15.0938 18.5625 15.0938 19.125 14.7188 19.4063C14.3438 19.7813 13.7812 19.7813 13.5 19.4063L9.65625 15.5625C9.28125 15.1875 9.28125 14.625 9.65625 14.3438C10.0312 13.9688 10.5938 13.9688 10.875 14.3438Z" fill="#6294DD"/>
</svg>
