<svg width="47" height="47" viewBox="0 0 47 47" fill="none" xmlns="http://www.w3.org/2000/svg">
<g clip-path="url(#clip0_9_2341)">
<path d="M23.1029 46.2061C35.8623 46.2061 46.2058 35.8625 46.2058 23.1032C46.2058 10.3438 35.8623 0.000244141 23.1029 0.000244141C10.3435 0.000244141 0 10.3438 0 23.1032C0 35.8625 10.3435 46.2061 23.1029 46.2061Z" fill="#13A4AE"/>
<path fill-rule="evenodd" clip-rule="evenodd" d="M31.9812 10.0632H14.2247C13.1526 10.0632 12.2832 10.9326 12.2832 12.0048V34.2021C12.2832 35.2743 13.1526 36.1437 14.2247 36.1437H31.9812C33.0534 36.1437 33.9227 35.2743 33.9227 34.2021V12.0048C33.9227 10.9326 33.0534 10.0632 31.9812 10.0632ZM32.2601 34.2021C32.2601 34.3543 32.1369 34.481 31.9812 34.481H14.2247C14.0726 34.481 13.9458 34.3579 13.9458 34.2021V12.0048C13.9458 11.8526 14.069 11.7259 14.2247 11.7259H31.9812C32.1333 11.7259 32.2601 11.849 32.2601 12.0048V34.2021Z" fill="white"/>
<path fill-rule="evenodd" clip-rule="evenodd" d="M25.3238 31.1484H20.8829C20.4229 31.1484 20.0498 31.5215 20.0498 31.9816C20.0498 32.4416 20.4229 32.8147 20.8829 32.8147H25.3238C25.7839 32.8147 26.157 32.4416 26.157 31.9816C26.157 31.5215 25.7839 31.1484 25.3238 31.1484Z" fill="white"/>
<path fill-rule="evenodd" clip-rule="evenodd" d="M27.3413 21.2633H22.7265V16.6486C22.7265 16.1885 22.3534 15.8154 21.8933 15.8154C18.4232 15.8154 15.6123 18.6263 15.6123 22.0965C15.6123 25.5666 18.4232 28.3775 21.8933 28.3775C25.3635 28.3775 28.1744 25.5666 28.1744 22.0965C28.1744 21.8755 28.0874 21.6654 27.9317 21.5097C27.7759 21.3539 27.5622 21.267 27.3449 21.267L27.3413 21.2633ZM21.8933 26.7113C19.3433 26.7113 17.2786 24.6429 17.2786 22.0965C17.2786 19.8325 18.9086 17.949 21.0602 17.5541V22.0965C21.0602 22.3174 21.1472 22.5275 21.3029 22.6833C21.4587 22.839 21.6724 22.926 21.8897 22.926H26.4321C26.0409 25.0776 24.1573 26.7076 21.8897 26.7076L21.8933 26.7113Z" fill="white"/>
<path fill-rule="evenodd" clip-rule="evenodd" d="M24.9181 13.3918C24.4581 13.3918 24.085 13.7649 24.085 14.225V19.068C24.085 19.528 24.4581 19.9011 24.9181 19.9011H29.7611C30.2211 19.9011 30.5942 19.528 30.5942 19.068C30.5942 15.9347 28.055 13.3918 24.9181 13.3918ZM25.7512 18.2348V15.145C27.2979 15.471 28.515 16.6881 28.841 18.2348H25.7512Z" fill="white"/>
</g>
<defs>
<clipPath id="clip0_9_2341">
<rect width="46.2058" height="46.2058" fill="white"/>
</clipPath>
</defs>
</svg>
