<svg width="47" height="57" viewBox="0 0 47 57" fill="none" xmlns="http://www.w3.org/2000/svg">
<path d="M22.2439 36.3767L11.2619 55.1001L8.5614 48.0788L1 49.159L11.2619 31.6958" stroke="white" stroke-width="2" stroke-miterlimit="10" stroke-linecap="round" stroke-linejoin="round"/>
<path d="M35.4767 31.6958L45.7386 49.159L38.1772 48.0788L35.3866 55.1001L24.4946 36.4667" stroke="white" stroke-width="2" stroke-miterlimit="10" stroke-linecap="round" stroke-linejoin="round"/>
<path d="M23.3244 36.2865C33.0685 36.2865 40.9677 28.3874 40.9677 18.6433C40.9677 8.89916 33.0685 1 23.3244 1C13.5803 1 5.68115 8.89916 5.68115 18.6433C5.68115 28.3874 13.5803 36.2865 23.3244 36.2865Z" stroke="white" stroke-width="2" stroke-miterlimit="10" stroke-linecap="round" stroke-linejoin="round"/>
<path d="M23.3241 29.2652C29.1905 29.2652 33.9461 24.5096 33.9461 18.6432C33.9461 12.7769 29.1905 8.02124 23.3241 8.02124C17.4578 8.02124 12.7021 12.7769 12.7021 18.6432C12.7021 24.5096 17.4578 29.2652 23.3241 29.2652Z" stroke="white" stroke-width="2" stroke-miterlimit="10" stroke-linecap="round" stroke-linejoin="round"/>
</svg>
