<svg width="38" height="57" viewBox="0 0 38 57" fill="none" xmlns="http://www.w3.org/2000/svg">
<path d="M37 18.5662C37 8.48453 28.2714 0.419175 17.833 1.03284C8.74443 1.64651 1.36559 9.01053 1.00564 17.9526C0.915658 21.6346 1.9055 24.9659 3.70522 27.8589C6.85473 32.5929 8.65444 38.116 8.65444 43.7266V56H29.3512V44.0773C29.3512 38.4666 30.881 32.8559 34.0305 28.2096C35.9202 25.4042 37 22.0729 37 18.5662Z" stroke="white" stroke-width="2" stroke-miterlimit="10" stroke-linecap="round" stroke-linejoin="round"/>
<path d="M9 45H29" stroke="white" stroke-width="2" stroke-miterlimit="10" stroke-linecap="round" stroke-linejoin="round"/>
<path d="M9 50L29 48" stroke="white" stroke-width="2" stroke-miterlimit="10" stroke-linecap="round" stroke-linejoin="round"/>
<path d="M9 54L29 52" stroke="white" stroke-width="2" stroke-miterlimit="10" stroke-linecap="round" stroke-linejoin="round"/>
<path d="M14.6095 45.0259L10.9141 17.4863" stroke="white" stroke-width="2" stroke-miterlimit="10" stroke-linecap="round" stroke-linejoin="round"/>
<path d="M23.5845 45.0259L27.2799 17.4863" stroke="white" stroke-width="2" stroke-miterlimit="10" stroke-linecap="round" stroke-linejoin="round"/>
<path d="M11 17C13.022 17 13.022 22 14.956 22C16.978 22 16.978 17 18.9121 17C20.9341 17 20.9341 22 22.956 22C24.978 22 24.978 17 27 17" stroke="white" stroke-width="2" stroke-miterlimit="10" stroke-linecap="round" stroke-linejoin="round"/>
</svg>
