<svg width="48" height="47" viewBox="0 0 48 47" fill="none" xmlns="http://www.w3.org/2000/svg">
<path d="M43.8201 24.5897C43.8201 36.4236 34.2439 45.9998 22.41 45.9998C10.5761 45.9998 1 36.4236 1 24.5897C1.07785 12.7558 10.654 3.17969 22.4879 3.17969C34.2439 3.17969 43.8201 12.7558 43.8201 24.5897Z" stroke="white" stroke-width="2" stroke-miterlimit="10" stroke-linecap="round" stroke-linejoin="round"/>
<path d="M34.789 24.5901C34.789 31.3635 29.2613 36.8911 22.4879 36.8911C15.7146 36.8911 10.1869 31.3635 10.1869 24.5901C10.1869 17.7389 15.6367 12.2891 22.4879 12.2891C29.2613 12.2891 34.789 17.7389 34.789 24.5901Z" stroke="white" stroke-width="2" stroke-miterlimit="10" stroke-linecap="round" stroke-linejoin="round"/>
<path d="M26.1471 24.5902C26.1471 26.5366 24.59 28.0937 22.6436 28.0937C20.6972 28.0937 19.1401 26.5366 19.1401 24.5902C19.1401 22.6439 20.6972 21.0868 22.6436 21.0868C24.59 21.0089 26.1471 22.566 26.1471 24.5902Z" stroke="white" stroke-width="2" stroke-miterlimit="10" stroke-linecap="round" stroke-linejoin="round"/>
<path d="M39.6158 7.53986V4.11426" stroke="white" stroke-width="2" stroke-miterlimit="10" stroke-linecap="round" stroke-linejoin="round"/>
<path d="M42.7301 4.50346V1" stroke="white" stroke-width="2" stroke-miterlimit="10" stroke-linecap="round" stroke-linejoin="round"/>
<path d="M46.2336 4.50391H42.7301" stroke="white" stroke-width="2" stroke-miterlimit="10" stroke-linecap="round" stroke-linejoin="round"/>
<path d="M43.1193 7.54004H39.6158" stroke="white" stroke-width="2" stroke-miterlimit="10" stroke-linecap="round" stroke-linejoin="round"/>
<path d="M22.4879 24.8235L42.6523 4.65918" stroke="white" stroke-width="2" stroke-miterlimit="10" stroke-linecap="round" stroke-linejoin="round"/>
</svg>
