<svg width="60" height="40" viewBox="0 0 60 40" fill="none" xmlns="http://www.w3.org/2000/svg">
<path d="M57.3053 21.2912L51.8517 23.2835C51.1147 23.5786 50.304 23.2097 50.0092 22.4718L43.966 5.6485C43.6712 4.91063 44.0397 4.09898 44.7767 3.80384L50.2303 1.8116C50.9673 1.51646 51.778 1.88539 52.0728 2.62325L58.116 19.4466C58.4108 20.1844 58.0423 20.9961 57.3053 21.2912Z" stroke="white" stroke-width="2" stroke-miterlimit="10" stroke-linecap="round" stroke-linejoin="round"/>
<path d="M47.2822 6.97668C47.2822 6.01746 48.0929 5.20581 49.051 5.20581C50.009 5.20581 50.8197 6.01746 50.8197 6.97668" stroke="white" stroke-width="2" stroke-miterlimit="10" stroke-linecap="round" stroke-linejoin="round"/>
<path d="M44.1132 4.09898C43.0815 4.46791 41.976 4.39413 41.0179 3.95141L40.2073 3.58248C38.6596 2.84461 36.8172 2.69704 35.1958 3.28733L19.4245 8.74753C18.9087 8.96889 18.5402 9.78054 18.5402 10.297C18.5402 10.5922 18.1717 11.6252 20.2352 13.1009C21.5618 13.9864 23.2568 14.1339 25.2466 13.3961L30.7003 11.4776C31.3635 12.9534 32.6901 15.3883 35.3432 16.864C36.6698 17.6019 38.1437 17.9708 39.7651 17.9708C41.1653 17.9708 42.6393 17.6757 44.1869 17.1592" stroke="white" stroke-width="2" stroke-miterlimit="10" stroke-linecap="round" stroke-linejoin="round"/>
<path d="M47.9453 23.6524L50.2299 22.767" stroke="white" stroke-width="2" stroke-miterlimit="10" stroke-linecap="round" stroke-linejoin="round"/>
<path d="M18.6133 27.1203C19.2029 25.866 18.687 24.3902 17.4341 23.7262C16.1813 23.1359 14.7073 23.5786 14.044 24.833L13.9703 24.9068L11.7594 29.4815L11.6857 29.5553C11.0961 30.8097 11.612 32.2854 12.8649 32.9495C14.1177 33.5398 15.5917 33.097 16.255 31.8427L16.3287 31.7689L18.5396 27.1941L18.6133 27.1203Z" stroke="white" stroke-width="2" stroke-miterlimit="10" stroke-linecap="round" stroke-linejoin="round"/>
<path d="M23.2559 29.4077C23.8454 28.1533 23.3296 26.6776 22.0767 26.0135C20.8238 25.4232 19.3499 25.866 18.6866 27.1203L18.6129 27.1941L16.402 31.7689L16.3283 31.8426C15.7387 33.097 16.2546 34.5727 17.5075 35.2368C18.7603 35.8271 20.2343 35.3844 20.8975 34.13L20.9712 34.0562L23.1822 29.4815L23.2559 29.4077Z" stroke="white" stroke-width="2" stroke-miterlimit="10" stroke-linecap="round" stroke-linejoin="round"/>
<path d="M27.8989 31.6952C28.4885 30.4408 27.9726 28.9651 26.7197 28.301C25.4669 27.7107 23.9929 28.1534 23.3296 29.4078L23.256 29.4816L21.045 34.0563L20.8976 34.1301C20.308 35.3845 20.8239 36.8602 22.0768 37.5243C23.3296 38.1146 24.8036 37.6719 25.4669 36.4175L25.5406 36.3437L27.7515 31.769L27.8989 31.6952Z" stroke="white" stroke-width="2" stroke-miterlimit="10" stroke-linecap="round" stroke-linejoin="round"/>
<path d="M32.4687 33.9087C33.0583 32.6543 32.5424 31.1786 31.2895 30.5145C30.0367 29.9242 28.5627 30.3669 27.8994 31.6213L27.8258 31.6951L26.5729 34.2776L26.4992 34.3514C25.9096 35.6058 26.4255 37.0815 27.6784 37.7456C28.9312 38.3359 30.4052 37.8931 31.0684 36.6388L31.1421 36.565L32.395 33.9825L32.4687 33.9087Z" stroke="white" stroke-width="2" stroke-miterlimit="10" stroke-linecap="round" stroke-linejoin="round"/>
<path d="M8.44331 24.2426L2.5475 21.365C1.81053 20.996 1.51574 20.1844 1.88422 19.4465L9.47507 3.8776C9.84356 3.13973 10.6542 2.84459 11.3912 3.21352L17.287 6.09119C17.9503 6.46012 18.2451 7.27177 17.9503 8.00963L10.2857 23.6524C9.99096 24.3164 9.10659 24.6116 8.44331 24.2426Z" stroke="white" stroke-width="2" stroke-miterlimit="10" stroke-linecap="round" stroke-linejoin="round"/>
<path d="M9.25428 18.6349C9.25428 19.5941 8.44361 20.4058 7.48554 20.4058C6.52747 20.4058 5.7168 19.5941 5.7168 18.6349" stroke="white" stroke-width="2" stroke-miterlimit="10" stroke-linecap="round" stroke-linejoin="round"/>
<path d="M44.4813 24.8329C45.7341 25.4232 46.3237 26.9727 45.6604 28.3008C44.9972 29.629 43.5232 30.1455 42.1967 29.4814L37.5537 27.2678" stroke="white" stroke-width="2" stroke-miterlimit="10" stroke-linecap="round" stroke-linejoin="round"/>
<path d="M42.2704 29.4814C43.5232 30.0717 44.1128 31.6213 43.4495 32.9494C42.8599 34.2038 41.3123 34.7941 39.9857 34.13L35.3428 31.9164" stroke="white" stroke-width="2" stroke-miterlimit="10" stroke-linecap="round" stroke-linejoin="round"/>
<path d="M13.4547 25.9397L10.5068 23.2096" stroke="white" stroke-width="2" stroke-miterlimit="10" stroke-linecap="round" stroke-linejoin="round"/>
<path d="M38.3642 33.3184C39.617 33.9087 40.2066 35.4582 39.5433 36.7863C38.88 38.1145 37.4061 38.631 36.0795 37.9669L31.584 35.7533" stroke="white" stroke-width="2" stroke-miterlimit="10" stroke-linecap="round" stroke-linejoin="round"/>
<path d="M42.1235 17.897L46.7664 20.1106C48.0193 20.7009 48.6089 22.2504 47.9456 23.5785C47.2823 24.9067 45.8084 25.4232 44.4818 24.7591L39.8389 22.5455" stroke="white" stroke-width="2" stroke-miterlimit="10" stroke-linecap="round" stroke-linejoin="round"/>
<path d="M17.877 8.00969L22.0777 7.78833" stroke="white" stroke-width="2" stroke-miterlimit="10" stroke-linecap="round" stroke-linejoin="round"/>
</svg>
