<svg width="26" height="14" viewBox="0 0 26 14" fill="none" xmlns="http://www.w3.org/2000/svg">
<path d="M13.0011 11.0194L1.87264 0.309093C1.64368 0.10303 1.37465 0 1.06556 0C0.756464 0 0.498889 0.114478 0.292825 0.343437C0.0867621 0.5495 -0.0105442 0.807076 0.000903798 1.11617C0.0123518 1.42527 0.121106 1.68284 0.327169 1.8889L12.2444 13.3254C12.4505 13.5314 12.7024 13.6345 13 13.6345C13.2976 13.6345 13.5495 13.5314 13.7556 13.3254L25.6728 1.8889C25.8789 1.68284 25.9876 1.42527 25.9991 1.11617C26.0105 0.807076 25.9132 0.5495 25.7072 0.343437C25.5011 0.114478 25.2435 0 24.9344 0C24.6253 0 24.3678 0.10303 24.1617 0.309093L13.0011 11.0194V11.0194Z" fill="white"/>
</svg>
