<svg width="32" height="21" viewBox="0 0 32 21" fill="none" xmlns="http://www.w3.org/2000/svg">
<path fill-rule="evenodd" clip-rule="evenodd" d="M29 0H3C1.3 0 0 1.3 0 3V18C0 19.7 1.3 21 3 21H29C30.7 21 32 19.7 32 18V3C32 1.3 30.7 0 29 0ZM4 2H28C28.3 2 28.6 2.1 28.8 2.2L16.8 12.9C16.6 13.1 16.3 13.1 16 13.1C15.7 13.1 15.4 13 15.2 12.8L3.5 2.1C3.7 2 3.8 2 4 2ZM2 4C2 3.8 2 3.6 2.1 3.4L10 10.6L2.1 17.6C2 17.4 2 17.2 2 17V4ZM28 19H4C3.9 19 3.7 19 3.6 18.9L11.5 11.9L14.1 14.2C15.3 15.2 17 15.2 18.2 14.2L20.8 11.9L28.6 18.8C28.3 19 28.1 19 28 19ZM30 17C30 17.2 30 17.4 29.9 17.6L22.2 10.7L30 3.8C30 3.9 30 4 30 4V17Z" fill="#055FB4"/>
</svg>
