<svg width="41" height="40" viewBox="0 0 41 40" fill="none" xmlns="http://www.w3.org/2000/svg">
<path d="M38.752 17.2041H2.24802C1.93602 17.2041 1.62402 16.8863 1.62402 16.5686V2.27095C1.62402 1.95322 1.93602 1.6355 2.24802 1.6355H38.752C39.1264 1.6355 39.376 1.95322 39.376 2.27095V16.5686C39.376 16.8863 39.1264 17.2041 38.752 17.2041Z" stroke="white" stroke-width="2" stroke-miterlimit="10" stroke-linecap="round" stroke-linejoin="round"/>
<path d="M17.7231 2.01685V16.8229" stroke="white" stroke-width="2" stroke-miterlimit="10" stroke-linecap="round" stroke-linejoin="round"/>
<path d="M22.6528 5.76587H27.3952" stroke="white" stroke-width="2" stroke-miterlimit="10" stroke-linecap="round" stroke-linejoin="round"/>
<path d="M22.6528 9.38794H35.008" stroke="white" stroke-width="2" stroke-miterlimit="10" stroke-linecap="round" stroke-linejoin="round"/>
<path d="M22.6528 13.0735H35.008" stroke="white" stroke-width="2" stroke-miterlimit="10" stroke-linecap="round" stroke-linejoin="round"/>
<path d="M38.752 38.3645H2.24802C1.93602 38.3645 1.62402 38.0467 1.62402 37.729V23.4313C1.62402 23.1136 1.93602 22.7959 2.24802 22.7959H38.752C39.1264 22.7959 39.376 23.1136 39.376 23.4313V37.729C39.376 38.1103 39.1264 38.3645 38.752 38.3645Z" stroke="white" stroke-width="2" stroke-miterlimit="10" stroke-linecap="round" stroke-linejoin="round"/>
<path d="M17.7231 23.1772V37.9833" stroke="white" stroke-width="2" stroke-miterlimit="10" stroke-linecap="round" stroke-linejoin="round"/>
<path d="M22.6528 26.99H27.3952" stroke="white" stroke-width="2" stroke-miterlimit="10" stroke-linecap="round" stroke-linejoin="round"/>
<path d="M22.6528 30.6121H35.008" stroke="white" stroke-width="2" stroke-miterlimit="10" stroke-linecap="round" stroke-linejoin="round"/>
<path d="M22.6528 34.2341H35.008" stroke="white" stroke-width="2" stroke-miterlimit="10" stroke-linecap="round" stroke-linejoin="round"/>
<path d="M5.55518 9.76924L9.92318 5.51172L14.2912 9.76924" stroke="white" stroke-width="2" stroke-miterlimit="10" stroke-linecap="round" stroke-linejoin="round"/>
<path d="M13.1054 8.75244V14.0267H10.859H8.98702H6.67822V8.75244" stroke="white" stroke-width="2" stroke-miterlimit="10" stroke-linecap="round" stroke-linejoin="round"/>
<path d="M5.55518 30.612L9.92318 26.3545L14.2912 30.612" stroke="white" stroke-width="2" stroke-miterlimit="10" stroke-linecap="round" stroke-linejoin="round"/>
<path d="M13.1054 29.5952V34.8695H10.859H8.98702H6.67822V29.5952" stroke="white" stroke-width="2" stroke-miterlimit="10" stroke-linecap="round" stroke-linejoin="round"/>
</svg>
