<svg width="57" height="25" viewBox="0 0 57 25" fill="none" xmlns="http://www.w3.org/2000/svg">
<path d="M46.9002 20.3529H9.11304L0 25V10.1765C0 4.58823 4.52749 0 10.0418 0H46.9002C52.4725 0 56.942 4.58823 56.942 10.1765C57 15.8235 52.4725 20.3529 46.9002 20.3529Z" fill="white"/>
<path d="M17.3554 14.4703C19.4392 14.4703 21.1283 12.7584 21.1283 10.6468C21.1283 8.53509 19.4392 6.82324 17.3554 6.82324C15.2717 6.82324 13.5825 8.53509 13.5825 10.6468C13.5825 12.7584 15.2717 14.4703 17.3554 14.4703Z" fill="#333F48"/>
<path d="M28.4419 14.4703C30.5256 14.4703 32.2148 12.7584 32.2148 10.6468C32.2148 8.53509 30.5256 6.82324 28.4419 6.82324C26.3581 6.82324 24.6689 8.53509 24.6689 10.6468C24.6689 12.7584 26.3581 14.4703 28.4419 14.4703Z" fill="#333F48"/>
<path d="M39.3545 14.4703C41.4382 14.4703 43.1274 12.7584 43.1274 10.6468C43.1274 8.53509 41.4382 6.82324 39.3545 6.82324C37.2707 6.82324 35.5815 8.53509 35.5815 10.6468C35.5815 12.7584 37.2707 14.4703 39.3545 14.4703Z" fill="#333F48"/>
</svg>
