<?xml version="1.0" encoding="UTF-8"?>
<svg width="43px" height="43px" viewBox="0 0 43 43" version="1.1" xmlns="http://www.w3.org/2000/svg" xmlns:xlink="http://www.w3.org/1999/xlink">
    <!-- Generator: Sketch 63.1 (92452) - https://sketch.com -->
    <title>pricing_deferred_icon</title>
    <desc>Created with Sketch.</desc>
    <g id="Page-1" stroke="none" stroke-width="1" fill="none" fill-rule="evenodd" stroke-linecap="round" stroke-linejoin="round">
        <g id="Support-for-your-agency---2" transform="translate(-1181.000000, -671.000000)" stroke="#FFFFFF" stroke-width="2.20626781">
            <g id="pricing_deferred_icon" transform="translate(1181.000000, 671.000000)">
                <g id="Group" transform="translate(0.375599, 0.654229)">
                    <path d="M40.5910181,20.528381 C40.5910181,31.5311684 31.6731538,40.4490326 20.6703665,40.4490326 C9.66757915,40.4490326 0.746794838,31.5311684 0.746794838,20.528381 C0.746794838,9.5255937 9.66757915,0.607729445 20.6703665,0.607729445 C31.6731538,0.607729445 40.5910181,9.5255937 40.5910181,20.528381 Z" id="Stroke-17"></path>
                    <path d="M26.5198313,15.4296637 C24.6013517,10.3195581 15.9492129,10.9269307 15.8849716,16.2502006 C15.8586911,18.6329699 18.6502687,19.7309126 20.9833969,20.0988402 C29.4924528,21.4420679 27.1418042,29.4430332 20.9833969,29.1364269 C16.3113004,28.9086622 14.9622325,25.7491569 14.8191496,24.9928613" id="Stroke-21"></path>
                    <line x1="21.084431" y1="7.61908631" x2="21.084431" y2="11.9086549" id="Stroke-25"></line>
                    <line x1="21.084431" y1="29.1457711" x2="21.084431" y2="33.4382598" id="Stroke-29"></line>
                </g>
            </g>
        </g>
    </g>
</svg>