<svg width="62" height="35" viewBox="0 0 62 35" fill="none" xmlns="http://www.w3.org/2000/svg">
<path d="M5.90039 29L22.9004 16L39.9004 23.8L57.5004 4.5" stroke="white" stroke-width="2" stroke-miterlimit="10" stroke-linecap="round" stroke-linejoin="round"/>
<path d="M5.90039 29L22.9004 16L39.9004 23.8L57.5004 4.5" stroke="white" stroke-width="2" stroke-miterlimit="10" stroke-linecap="round" stroke-linejoin="round"/>
<path d="M9.1 29.5C9.1 31.6 7.4 33.2999 5.3 33.2999C3.2 33.2999 1.5 31.6 1.5 29.5C1.5 27.4 3.2 25.7 5.3 25.7C7.4 25.7 9.1 27.4 9.1 29.5Z" stroke="white" stroke-width="2" stroke-miterlimit="10" stroke-linecap="round" stroke-linejoin="round"/>
<path d="M9.1 29.5C9.1 31.6 7.4 33.2999 5.3 33.2999C3.2 33.2999 1.5 31.6 1.5 29.5C1.5 27.4 3.2 25.7 5.3 25.7C7.4 25.7 9.1 27.4 9.1 29.5Z" fill="#333F48" stroke="white" stroke-width="2" stroke-miterlimit="10" stroke-linecap="round" stroke-linejoin="round"/>
<path d="M26.6996 16C26.6996 18.1 24.9996 19.8 22.8996 19.8C20.7996 19.8 19.0996 18.1 19.0996 16C19.0996 13.9 20.7996 12.2 22.8996 12.2C24.9996 12.2 26.6996 13.9 26.6996 16Z" stroke="white" stroke-width="2" stroke-miterlimit="10" stroke-linecap="round" stroke-linejoin="round"/>
<path d="M26.6996 16C26.6996 18.1 24.9996 19.8 22.8996 19.8C20.7996 19.8 19.0996 18.1 19.0996 16C19.0996 13.9 20.7996 12.2 22.8996 12.2C24.9996 12.2 26.6996 13.9 26.6996 16Z" fill="#333F48" stroke="white" stroke-width="2" stroke-miterlimit="10" stroke-linecap="round" stroke-linejoin="round"/>
<path d="M43.6996 23.8C43.6996 25.9 41.9996 27.6 39.8996 27.6C37.7996 27.6 36.0996 25.9 36.0996 23.8C36.0996 21.7 37.7996 20 39.8996 20C41.9996 20 43.6996 21.7 43.6996 23.8Z" stroke="white" stroke-width="2" stroke-miterlimit="10" stroke-linecap="round" stroke-linejoin="round"/>
<path d="M43.6996 23.8C43.6996 25.9 41.9996 27.6 39.8996 27.6C37.7996 27.6 36.0996 25.9 36.0996 23.8C36.0996 21.7 37.7996 20 39.8996 20C41.9996 20 43.6996 21.7 43.6996 23.8Z" fill="#333F48" stroke="white" stroke-width="2" stroke-miterlimit="10" stroke-linecap="round" stroke-linejoin="round"/>
<path d="M60.6996 5.3C60.6996 7.4 58.9996 9.1 56.8996 9.1C54.7996 9.1 53.0996 7.4 53.0996 5.3C53.0996 3.2 54.7996 1.5 56.8996 1.5C58.9996 1.5 60.6996 3.2 60.6996 5.3Z" stroke="white" stroke-width="2" stroke-miterlimit="10" stroke-linecap="round" stroke-linejoin="round"/>
<path d="M56.8996 9.1C58.9983 9.1 60.6996 7.39868 60.6996 5.3C60.6996 3.20132 58.9983 1.5 56.8996 1.5C54.8009 1.5 53.0996 3.20132 53.0996 5.3C53.0996 7.39868 54.8009 9.1 56.8996 9.1Z" fill="#333F48" stroke="white" stroke-width="2" stroke-miterlimit="10" stroke-linecap="round" stroke-linejoin="round"/>
</svg>
