<svg width="37" height="37" viewBox="0 0 37 37" fill="none" xmlns="http://www.w3.org/2000/svg">
<path d="M29.4373 15.5834C29.4373 19.448 27.9061 22.8751 25.354 25.3542C22.8748 27.9063 19.4478 29.4376 15.5832 29.4376C11.7186 29.4376 8.2915 27.9063 5.81234 25.3542C3.26025 22.8751 1.729 19.448 1.729 15.5834C1.729 11.7188 3.26025 8.29175 5.81234 5.81258C8.2915 3.2605 11.7915 1.72925 15.5832 1.72925C19.4478 1.72925 22.8748 3.2605 25.354 5.81258C27.9061 8.29175 29.4373 11.7917 29.4373 15.5834Z" stroke="white" stroke-width="2" stroke-miterlimit="10" stroke-linecap="round" stroke-linejoin="round"/>
<path d="M25.4268 25.4272L35.2705 35.271" stroke="white" stroke-width="2" stroke-miterlimit="10" stroke-linecap="round" stroke-linejoin="round"/>
<path d="M21.9272 10.1145C21.9272 10.1145 24.4793 10.9166 24.2606 15.5833" stroke="white" stroke-width="2" stroke-miterlimit="10" stroke-linecap="round" stroke-linejoin="round"/>
</svg>
