<svg width="41" height="41" viewBox="0 0 41 41" fill="none" xmlns="http://www.w3.org/2000/svg">
<path d="M18.7001 29.2C17.6801 29.44 16.6001 29.56 15.5201 29.56C14.5601 29.56 13.5401 29.44 12.6401 29.26C11.8001 31.36 9.7001 32.86 7.3001 32.86C6.4001 32.86 5.6201 32.62 4.8401 32.26C6.7001 31.36 8.0201 29.56 8.0801 27.4C4.2401 24.94 1.6001 20.56 1.6001 15.58C1.6001 7.83998 7.8401 1.59998 15.5801 1.59998C23.0201 1.59998 29.1401 7.41998 29.5601 14.8" stroke="white" stroke-width="2" stroke-miterlimit="10" stroke-linecap="round" stroke-linejoin="round"/>
<path d="M28.48 36.1C29.38 38.08 31.36 39.4 33.7 39.4C34.6 39.4 35.38 39.16 36.16 38.8C34.66 38.08 33.52 36.76 33.1 35.14C36.82 33.52 39.4 29.8 39.4 25.42C39.4 19.78 35.02 15.16 29.5 14.8C29.26 14.8 28.96 14.74 28.72 14.74C22.84 14.74 18.04 19.54 18.04 25.42C18.04 26.74 18.28 28 18.76 29.14C20.2 33.16 23.98 35.98 28.48 36.1Z" stroke="white" stroke-width="2" stroke-miterlimit="10" stroke-linecap="round" stroke-linejoin="round"/>
</svg>
