<svg width="35" height="35" viewBox="0 0 35 35" fill="none" xmlns="http://www.w3.org/2000/svg">
<path fill-rule="evenodd" clip-rule="evenodd" d="M17.5 0C7.875 0 0 7.875 0 17.5C0 27.125 7.875 35 17.5 35C27.125 35 35 27.125 35 17.5C35 7.875 27.125 0 17.5 0ZM17.5 32.8125C9.07812 32.8125 2.1875 25.9219 2.1875 17.5C2.1875 9.07812 9.07812 2.1875 17.5 2.1875C25.9219 2.1875 32.8125 9.07812 32.8125 17.5C32.8125 25.9219 25.9219 32.8125 17.5 32.8125Z" fill="#055FB4"/>
<path fill-rule="evenodd" clip-rule="evenodd" d="M23.5156 13.4531L15.75 21.2188C15.3125 21.6562 15.3125 22.3125 15.75 22.6406C16.1875 23.0781 16.8438 23.0781 17.1719 22.6406L24.9375 14.875C25.375 14.4375 25.375 13.7812 24.9375 13.4531C24.6094 13.0156 23.9531 13.0156 23.5156 13.4531Z" fill="#055FB4"/>
<path fill-rule="evenodd" clip-rule="evenodd" d="M12.6875 16.7344L17.1719 21.2187C17.6094 21.6562 17.6094 22.3125 17.1719 22.6406C16.7344 23.0781 16.0781 23.0781 15.75 22.6406L11.2656 18.1563C10.8281 17.7188 10.8281 17.0625 11.2656 16.7344C11.7031 16.2969 12.3594 16.2969 12.6875 16.7344Z" fill="#055FB4"/>
</svg>
