<svg width="32" height="32" viewBox="0 0 32 32" fill="none" xmlns="http://www.w3.org/2000/svg">
<path fill-rule="evenodd" clip-rule="evenodd" d="M15.8999 15.5H21.8999C22.4999 15.5 22.8999 15.9 22.8999 16.5C22.8999 17.1 22.4999 17.5 21.8999 17.5H15.8999C15.2999 17.5 14.8999 17.1 14.8999 16.5C14.8999 15.9 15.2999 15.5 15.8999 15.5Z" fill="#333F48"/>
<path fill-rule="evenodd" clip-rule="evenodd" d="M15.8999 7.5C16.4999 7.5 16.8999 7.9 16.8999 8.5V16.5C16.8999 17.1 16.4999 17.5 15.8999 17.5C15.2999 17.5 14.8999 17.1 14.8999 16.5V8.5C14.8999 7.9 15.2999 7.5 15.8999 7.5Z" fill="#333F48"/>
<path fill-rule="evenodd" clip-rule="evenodd" d="M16 0C24.8 0 32 7.2 32 16C32 24.8 24.8 32 16 32C7.2 32 0 24.8 0 16C0 7.2 7.2 0 16 0ZM16 2C23.7 2 30 8.3 30 16C30 23.7 23.7 30 16 30C8.3 30 2 23.7 2 16C2 8.3 8.3 2 16 2Z" fill="#333F48"/>
</svg>
