<svg width="32" height="32" viewBox="0 0 32 32" fill="none" xmlns="http://www.w3.org/2000/svg">
<path fill-rule="evenodd" clip-rule="evenodd" d="M15.9004 15.5H21.9004C22.5004 15.5 22.9004 15.9 22.9004 16.5C22.9004 17.1 22.5004 17.5 21.9004 17.5H15.9004C15.3004 17.5 14.9004 17.1 14.9004 16.5C14.9004 15.9 15.3004 15.5 15.9004 15.5Z" fill="#055FB4"/>
<path fill-rule="evenodd" clip-rule="evenodd" d="M15.9004 7.5C16.5004 7.5 16.9004 7.9 16.9004 8.5V16.5C16.9004 17.1 16.5004 17.5 15.9004 17.5C15.3004 17.5 14.9004 17.1 14.9004 16.5V8.5C14.9004 7.9 15.3004 7.5 15.9004 7.5Z" fill="#055FB4"/>
<path fill-rule="evenodd" clip-rule="evenodd" d="M16 0C24.8 0 32 7.2 32 16C32 24.8 24.8 32 16 32C7.2 32 0 24.8 0 16C0 7.2 7.2 0 16 0ZM16 2C23.7 2 30 8.3 30 16C30 23.7 23.7 30 16 30C8.3 30 2 23.7 2 16C2 8.3 8.3 2 16 2Z" fill="#055FB4"/>
</svg>
