<svg width="32" height="22" viewBox="0 0 32 22" fill="none" xmlns="http://www.w3.org/2000/svg">
<path fill-rule="evenodd" clip-rule="evenodd" d="M16 0C24.8 0 32 4.9 32 11C32 17.1 24.8 22 16 22C7.2 22 0 17.1 0 11C0 4.9 7.2 0 16 0ZM16 2C23.7 2 30 6 30 11C30 16 23.7 20 16 20C8.3 20 2 16 2 11C2 6 8.3 2 16 2ZM16 5C19.3 5 22 7.7 22 11C22 14.3 19.3 17 16 17C12.7 17 10 14.3 10 11C10 7.7 12.7 5 16 5ZM16 7C18.2 7 20 8.8 20 11C20 13.2 18.2 15 16 15C13.8 15 12 13.2 12 11C12 8.8 13.8 7 16 7Z" fill="#333F48"/>
</svg>
