<svg width="58" height="58" viewBox="0 0 58 58" fill="none" xmlns="http://www.w3.org/2000/svg">
<path d="M29.0818 57.2739H9.06969C8.25438 57.2739 7.58731 56.6068 7.58731 55.7915V30.9617H2.39898C1.79862 30.9617 1.26496 30.6059 1.02778 30.05C0.790603 29.4941 0.916605 28.8641 1.33908 28.4342L28.0293 1.38822C28.5852 0.824918 29.5858 0.824918 30.1417 1.38822L56.8245 28.4416C57.247 28.8641 57.3656 29.5015 57.1358 30.0574C56.9061 30.6133 56.365 30.9691 55.7646 30.9691H50.5763V35.7868C50.5763 36.6021 49.9092 37.2692 49.0939 37.2692C48.2786 37.2692 47.6116 36.6021 47.6116 35.7868V29.4867C47.6116 28.6714 48.2786 28.0043 49.0939 28.0043H52.2218L29.0818 4.54569L5.94187 28.0043H9.06969C9.885 28.0043 10.5521 28.6714 10.5521 29.4867V54.3166H29.0818C29.8971 54.3166 30.5642 54.9836 30.5642 55.7989C30.5642 56.6143 29.8971 57.2813 29.0818 57.2813V57.2739Z" fill="white"/>
<path d="M38.015 57.9781C37.4221 57.9781 36.8884 57.6297 36.6513 57.0812L27.5346 35.8091C27.2974 35.2532 27.4234 34.6083 27.8459 34.1785C28.2758 33.7486 28.9206 33.6226 29.4765 33.8672L50.7487 42.9838C51.312 43.2284 51.6752 43.7917 51.6455 44.4069C51.6233 45.0221 51.2156 45.5557 50.6301 45.7484L42.2176 48.5501L39.4159 56.9626C39.2232 57.5482 38.6895 57.9484 38.0743 57.9781C38.0521 57.9781 38.0299 57.9781 38.015 57.9781ZM31.7223 38.0475L37.8446 52.3302L39.6531 46.9121C39.8013 46.4674 40.1497 46.119 40.5944 45.9782L46.0125 44.1697L31.7298 38.0475H31.7223Z" fill="white"/>
</svg>
