<svg width="57" height="57" viewBox="0 0 57 57" fill="none" xmlns="http://www.w3.org/2000/svg">
<path d="M46.1668 21.794C42.4905 21.794 39.4961 18.7996 39.4961 15.1233C39.4961 11.447 42.4905 8.45261 46.1668 8.45261C49.8431 8.45261 52.8375 11.447 52.8375 15.1233C52.8375 18.7996 49.8431 21.794 46.1668 21.794ZM46.1668 11.4174C44.1211 11.4174 42.4609 13.0776 42.4609 15.1233C42.4609 17.169 44.1211 18.8293 46.1668 18.8293C48.2125 18.8293 49.8727 17.169 49.8727 15.1233C49.8727 13.0776 48.2125 11.4174 46.1668 11.4174Z" fill="white"/>
<path d="M10.5906 21.794C6.91433 21.794 3.91992 18.7996 3.91992 15.1233C3.91992 11.447 6.91433 8.45261 10.5906 8.45261C14.2669 8.45261 17.2613 11.447 17.2613 15.1233C17.2613 18.7996 14.2669 21.794 10.5906 21.794ZM10.5906 11.4174C8.54494 11.4174 6.88468 13.0776 6.88468 15.1233C6.88468 17.169 8.54494 18.8293 10.5906 18.8293C12.6363 18.8293 14.2966 17.169 14.2966 15.1233C14.2966 13.0776 12.6363 11.4174 10.5906 11.4174Z" fill="white"/>
<path d="M1.69722 56.63C0.881914 56.63 0.214844 55.9629 0.214844 55.1476V35.1355C0.214844 32.3189 1.91958 26.9824 8.36793 26.9824H10.6286C11.4439 26.9824 12.1109 27.6494 12.1109 28.4648C12.1109 29.2801 11.4439 29.9471 10.6286 29.9471H8.36793C3.32784 29.9471 3.1796 34.6018 3.1796 35.1355V55.1476C3.1796 55.9629 2.51253 56.63 1.69722 56.63Z" fill="white"/>
<path d="M55.1061 56.63C54.2908 56.63 53.6237 55.9629 53.6237 55.1476V35.1355C53.6237 34.6092 53.431 29.9471 48.4354 29.9471H46.1748C45.3595 29.9471 44.6924 29.2801 44.6924 28.4648C44.6924 27.6494 45.3595 26.9824 46.1748 26.9824H48.4354C54.8837 26.9824 56.5885 32.3189 56.5885 35.1355V55.1476C56.5885 55.9629 55.9214 56.63 55.1061 56.63Z" fill="white"/>
<path d="M28.3796 16.6057C23.8806 16.6057 20.2266 12.9517 20.2266 8.45263C20.2266 3.95361 23.8806 0.299545 28.3796 0.299545C32.8787 0.299545 36.5327 3.95361 36.5327 8.45263C36.5327 12.9517 32.8787 16.6057 28.3796 16.6057ZM28.3796 3.2643C25.5187 3.2643 23.1913 5.59164 23.1913 8.45263C23.1913 11.3136 25.5187 13.641 28.3796 13.641C31.2406 13.641 33.568 11.3136 33.568 8.45263C33.568 5.59164 31.2406 3.2643 28.3796 3.2643Z" fill="white"/>
<path d="M41.7209 56.63C40.9056 56.63 40.2385 55.9629 40.2385 55.1476V28.4648C40.2385 23.4692 35.5764 23.2839 35.0427 23.2764H21.7087C16.7131 23.2764 16.5278 27.9385 16.5204 28.4722V55.1476C16.5204 55.9629 15.8534 56.63 15.038 56.63C14.2227 56.63 13.5557 55.9629 13.5557 55.1476V28.4648C13.5557 25.6483 15.2604 20.3117 21.7087 20.3117H35.0502C37.8667 20.3117 43.2032 22.0164 43.2032 28.4648V55.1476C43.2032 55.9629 42.5362 56.63 41.7209 56.63Z" fill="white"/>
</svg>
