<svg width="58" height="89" viewBox="0 0 58 89" fill="none" xmlns="http://www.w3.org/2000/svg">
<path d="M44.7589 56.8588H12.9039C12.3038 56.8588 11.7038 56.7588 11.1537 56.5088C10.6036 56.2588 10.1035 55.9587 9.65343 55.5086C9.20337 55.0586 8.90332 54.5585 8.65328 54.0084C8.40324 53.4583 8.30323 52.8582 8.30323 52.2581V33.5552H4.50263C3.60249 33.5552 2.75236 33.2552 2.00224 32.7551C1.25213 32.255 0.702043 31.5549 0.351988 30.7048C0.00193391 29.9047 -0.0980817 29.0045 0.101949 28.1044C0.251973 27.2042 0.702043 26.4041 1.30214 25.754L25.6059 1.35021C26.456 0.500078 27.6562 0 28.8564 0C30.0566 0 31.2068 0.45007 32.0569 1.3002L56.4107 25.754C57.0108 26.4041 57.4609 27.2042 57.6109 28.1044C57.7609 29.0045 57.6609 29.9047 57.3609 30.7048C57.0108 31.5049 56.4607 32.255 55.7106 32.7551C54.9605 33.2552 54.1104 33.5052 53.2102 33.5552H49.4096V52.3581C49.4096 53.5583 48.9095 54.7585 48.0594 55.6086C47.1593 56.3588 46.0091 56.8588 44.7589 56.8588ZM28.8564 3.90061C28.7564 3.90061 28.7064 3.90061 28.6064 3.95061C28.5064 4.00062 28.4564 4.05063 28.4064 4.10064L4.05256 28.5544C3.95255 28.6545 3.90254 28.7545 3.90254 28.8545C3.90254 28.9545 3.90254 29.1045 3.95255 29.2045C4.00256 29.3046 4.05256 29.4046 4.20259 29.4546C4.3026 29.5046 4.40262 29.5546 4.55264 29.5546H10.3535C10.8536 29.5546 11.4037 29.7546 11.7538 30.1547C12.1038 30.5047 12.3539 31.0048 12.3539 31.5549V52.2581C12.3539 52.4082 12.4039 52.5582 12.5539 52.7082C12.7039 52.8582 12.8039 52.9082 13.004 52.9082H44.9089C45.0589 52.9082 45.209 52.8582 45.359 52.7082C45.459 52.6082 45.559 52.4582 45.559 52.2581V31.5549C45.559 31.3049 45.609 31.0548 45.709 30.8048C45.8091 30.5548 45.9591 30.3547 46.1591 30.1547C46.3591 29.9547 46.5592 29.8046 46.8092 29.7046C47.0593 29.6046 47.3093 29.5546 47.5593 29.5546H53.3602C53.4602 29.5546 53.6103 29.5046 53.7103 29.4546C53.8103 29.4046 53.9103 29.3046 53.9103 29.2045C53.9603 29.1045 53.9603 28.9545 53.9603 28.8545C53.9603 28.7545 53.8603 28.6044 53.8103 28.5544L29.2565 4.10064C29.2065 4.05063 29.1565 4.00062 29.0565 3.95061C29.0064 3.95061 28.9064 3.90061 28.8564 3.90061Z" fill="white"/>
<path d="M47.7104 62.9096C48.1105 62.9096 48.5105 63.0596 48.8106 63.3597C49.1106 63.6597 49.2606 64.0598 49.2606 64.4598V71.5109C49.2606 71.911 49.1106 72.3111 48.8106 72.6111C48.5105 72.9112 48.1105 73.0612 47.7104 73.0612C47.3103 73.0612 46.9103 72.9112 46.6102 72.6111C46.3102 72.3111 46.1602 71.911 46.1602 71.5109V64.5099C46.1602 64.1098 46.3102 63.7097 46.6102 63.4097C46.9103 63.0596 47.3103 62.9096 47.7104 62.9096Z" fill="white"/>
<path d="M38.2582 62.9096C38.6583 62.9096 39.0584 63.1096 39.3584 63.4097C39.6585 63.7097 39.8085 64.1098 39.8085 64.5099V75.4116C39.8085 75.8116 39.6585 76.2117 39.3584 76.5117C39.0584 76.8118 38.6583 76.9618 38.2582 76.9618C37.8582 76.9618 37.4581 76.8118 37.1581 76.5117C36.858 76.2117 36.708 75.8116 36.708 75.4116V64.5099C36.708 64.3098 36.758 64.1098 36.808 63.9098C36.908 63.7097 37.0081 63.5597 37.1581 63.4097C37.3081 63.2597 37.5081 63.1596 37.7082 63.0596C37.8582 62.9596 38.0582 62.9096 38.2582 62.9096Z" fill="white"/>
<path d="M19.3549 62.9096C19.555 62.9096 19.755 62.9596 19.955 63.0596C20.1551 63.1596 20.3051 63.2597 20.4551 63.4097C20.6051 63.5597 20.7551 63.7597 20.8052 63.9598C20.9052 64.1598 20.9052 64.4098 20.9052 64.6099V79.3622C20.9052 79.7622 20.7551 80.1623 20.4551 80.4623C20.1551 80.7624 19.755 80.9124 19.3549 80.9124C18.9549 80.9124 18.5548 80.7624 18.2548 80.4623C17.9547 80.1623 17.8047 79.7622 17.8047 79.3622V64.6099C17.8047 64.4098 17.8047 64.1598 17.9047 63.9598C18.0047 63.7597 18.1047 63.5597 18.2548 63.4097C18.4048 63.2597 18.6048 63.1096 18.7548 63.0596C18.9049 62.9596 19.1549 62.9596 19.3549 62.9096Z" fill="white"/>
<path d="M9.95259 62.9096C10.1526 62.9096 10.3526 62.9596 10.5527 63.0596C10.7527 63.1596 10.9027 63.2597 11.0528 63.4097C11.2028 63.5597 11.3028 63.7597 11.4028 63.9598C11.4528 64.1598 11.5028 64.4098 11.5028 64.6099V69.1106C11.5028 69.5106 11.3528 69.9107 11.0528 70.2107C10.7527 70.5108 10.3526 70.6608 9.95259 70.6608C9.55252 70.6608 9.15246 70.5108 8.85241 70.2107C8.55237 69.9107 8.40234 69.5106 8.40234 69.1106V64.6099C8.40234 64.4098 8.40234 64.1598 8.50236 63.9598C8.55237 63.7597 8.70239 63.5597 8.85241 63.4097C9.00244 63.2597 9.20247 63.1096 9.4025 63.0096C9.50251 62.9596 9.70255 62.9096 9.95259 62.9096Z" fill="white"/>
<path d="M28.8071 62.9096C29.0071 62.9096 29.2071 62.9596 29.4072 63.0096C29.6072 63.1096 29.7572 63.2097 29.9072 63.3597C30.2073 63.6597 30.3573 64.0598 30.3573 64.4598V86.8633C30.3573 87.2634 30.2073 87.6635 29.9072 87.9635C29.6072 88.2635 29.2071 88.4136 28.8071 88.4136C28.407 88.4136 28.007 88.2635 27.7069 87.9635C27.4069 87.6635 27.2568 87.2634 27.2568 86.8633V64.5599C27.2568 64.3598 27.2568 64.1098 27.3569 63.9098C27.4069 63.7097 27.5569 63.5097 27.7069 63.3597C27.8569 63.2097 28.057 63.0596 28.257 63.0096C28.357 62.9596 28.607 62.9096 28.8071 62.9096Z" fill="white"/>
<path d="M38.2582 82.3627C39.1084 82.3627 39.8085 81.6626 39.8085 80.8125C39.8085 79.9623 39.1084 79.2622 38.2582 79.2622C37.4081 79.2622 36.708 79.9623 36.708 80.8125C36.708 81.6626 37.4081 82.3627 38.2582 82.3627Z" fill="white"/>
<path d="M9.90319 75.8618C10.7533 75.8618 11.4534 75.1617 11.4534 74.3116C11.4534 73.4615 10.7533 72.7614 9.90319 72.7614C9.05306 72.7614 8.35295 73.4615 8.35295 74.3116C8.30294 75.1617 9.05306 75.8618 9.90319 75.8618Z" fill="white"/>
</svg>
