<svg width="21" height="28" viewBox="0 0 21 28" fill="none" xmlns="http://www.w3.org/2000/svg">
<path d="M8.84863 23.6066H11.9882H8.84863Z" stroke="white" stroke-width="2" stroke-linecap="round" stroke-linejoin="round"/>
<path d="M1 4.64512C1 4.64512 1 1.48486 4.16667 1.48486H16.8333C16.8333 1.48486 20 1.48486 20 4.64512V23.6067C20 23.6067 20 26.7669 16.8333 26.7669H4.16667C4.16667 26.7669 1 26.7669 1 23.6067V4.64512Z" stroke="white" stroke-width="2" stroke-linecap="round" stroke-linejoin="round"/>
<path d="M14.3423 13.634C14.3423 14.6341 14.0452 15.6117 13.4884 16.4432C12.9317 17.2748 12.1404 17.9229 11.2146 18.3056C10.2888 18.6883 9.27004 18.7884 8.2872 18.5933C7.30436 18.3982 6.40157 17.9166 5.69298 17.2095C4.98439 16.5023 4.50184 15.6014 4.30634 14.6205C4.11084 13.6397 4.21118 12.623 4.59467 11.699C4.97815 10.7751 5.62756 9.9854 6.46077 9.42979C7.29398 8.87419 8.27358 8.57764 9.27567 8.57764" stroke="white" stroke-width="2" stroke-linecap="round" stroke-linejoin="round"/>
<path d="M9.27539 8.57768V13.6341H14.3421" stroke="white" stroke-width="2" stroke-linecap="round" stroke-linejoin="round"/>
<path d="M16.8762 11.1061C16.8762 9.76507 16.3424 8.47896 15.3923 7.5307C14.4421 6.58243 13.1533 6.04971 11.8096 6.04971" stroke="white" stroke-width="2" stroke-linecap="round" stroke-linejoin="round"/>
<path d="M11.8135 6.04968V11.1061H16.8801" stroke="white" stroke-width="2" stroke-linecap="round" stroke-linejoin="round"/>
</svg>
