<svg width="30" height="31" viewBox="0 0 30 31" fill="none" xmlns="http://www.w3.org/2000/svg">
<path fill-rule="evenodd" clip-rule="evenodd" d="M4.95936 6.59041C3.98218 6.59041 3.19002 7.38257 3.19002 8.35975C3.19002 9.33693 3.98218 10.1291 4.95936 10.1291C5.93654 10.1291 6.7287 9.33693 6.7287 8.35975C6.7287 7.38257 5.93654 6.59041 4.95936 6.59041ZM1.27734 8.35975C1.27734 6.32623 2.92584 4.67773 4.95936 4.67773C6.99288 4.67773 8.64137 6.32623 8.64137 8.35975C8.64137 10.3933 6.99288 12.0418 4.95936 12.0418C2.92584 12.0418 1.27734 10.3933 1.27734 8.35975Z" fill="#66408D"/>
<path fill-rule="evenodd" clip-rule="evenodd" d="M1.91281 18.8776L1.91314 18.8654C1.91362 18.851 1.91472 18.8255 1.91723 18.7904C1.92225 18.72 1.93277 18.6132 1.95456 18.4825C1.99887 18.2166 2.08573 17.8767 2.2499 17.5484C2.41221 17.2238 2.64064 16.9282 2.96539 16.7117C3.28415 16.4992 3.75215 16.3248 4.46092 16.3248H5.62906C6.15723 16.3248 6.5854 15.8966 6.5854 15.3684C6.5854 14.8403 6.15723 14.4121 5.62906 14.4121H4.46092C3.41746 14.4121 2.57129 14.6757 1.90443 15.1203C1.24356 15.5609 0.814907 16.1415 0.539154 16.693C0.265274 17.2407 0.133101 17.7769 0.0679048 18.1681C0.0349293 18.366 0.0180715 18.5329 0.00941085 18.6542C0.00506895 18.715 0.00275391 18.7647 0.00152236 18.8017C0.000906124 18.8202 0.000559703 18.8355 0.000367264 18.8474L0.000179385 18.8628L0.000145031 18.8685L0.000137963 18.8709C-0.000171252 19.3739 0.000135911 26.4835 0.000135911 29.3862C0.000135911 29.9144 0.428303 30.3426 0.956473 30.3426C1.48464 30.3426 1.91281 29.9144 1.91281 29.3862V18.8776Z" fill="#66408D"/>
<path fill-rule="evenodd" clip-rule="evenodd" d="M25.0406 6.59041C26.0178 6.59041 26.81 7.38257 26.81 8.35975C26.81 9.33693 26.0178 10.1291 25.0406 10.1291C24.0635 10.1291 23.2713 9.33693 23.2713 8.35975C23.2713 7.38257 24.0635 6.59041 25.0406 6.59041ZM28.7227 8.35975C28.7227 6.32623 27.0742 4.67773 25.0406 4.67773C23.0071 4.67773 21.3586 6.32623 21.3586 8.35975C21.3586 10.3933 23.0071 12.0418 25.0406 12.0418C27.0742 12.0418 28.7227 10.3933 28.7227 8.35975Z" fill="#66408D"/>
<path fill-rule="evenodd" clip-rule="evenodd" d="M28.0872 18.8776L28.0869 18.8654C28.0864 18.851 28.0853 18.8255 28.0828 18.7904C28.0777 18.72 28.0672 18.6132 28.0454 18.4825C28.0011 18.2166 27.9143 17.8767 27.7501 17.5484C27.5878 17.2238 27.3594 16.9282 27.0346 16.7117C26.7158 16.4992 26.2479 16.3248 25.5391 16.3248H24.3709C23.8428 16.3248 23.4146 15.8966 23.4146 15.3684C23.4146 14.8403 23.8428 14.4121 24.3709 14.4121H25.5391C26.5825 14.4121 27.4287 14.6757 28.0956 15.1203C28.7564 15.5609 29.1851 16.1415 29.4608 16.693C29.7347 17.2407 29.8669 17.7769 29.9321 18.1681C29.9651 18.366 29.9819 18.5329 29.9906 18.6542C29.9949 18.715 29.9972 18.7647 29.9985 18.8017C29.9991 18.8202 29.9994 18.8355 29.9996 18.8474L29.9998 18.8628L29.9999 18.8685L29.9999 18.8709C30.0002 19.3739 29.9999 26.4835 29.9999 29.3862C29.9999 29.9144 29.5717 30.3426 29.0435 30.3426C28.5154 30.3426 28.0872 29.9144 28.0872 29.3862V18.8776Z" fill="#66408D"/>
<path fill-rule="evenodd" clip-rule="evenodd" d="M15.0438 2.30721C13.6365 2.30721 12.4957 3.44803 12.4957 4.85531C12.4957 6.26259 13.6365 7.40342 15.0438 7.40342C16.4511 7.40342 17.5919 6.26259 17.5919 4.85531C17.5919 3.44803 16.4511 2.30721 15.0438 2.30721ZM10.583 4.85531C10.583 2.39169 12.5802 0.394531 15.0438 0.394531C17.5074 0.394531 19.5046 2.39169 19.5046 4.85531C19.5046 7.31893 17.5074 9.31609 15.0438 9.31609C12.5802 9.31609 10.583 7.31893 10.583 4.85531Z" fill="#66408D"/>
<path d="M9.566 15.1239V29.4017C9.566 29.9299 9.13783 30.3581 8.60966 30.3581C8.08149 30.3581 7.65332 29.9299 7.65332 29.4017V15.1186L7.65333 15.1164L7.65336 15.1111L7.65352 15.0964C7.65368 15.0849 7.65398 15.07 7.65452 15.0519C7.6556 15.0156 7.65764 14.9665 7.66149 14.9061C7.66916 14.7858 7.68415 14.6194 7.71355 14.4218C7.77162 14.0315 7.88955 13.4949 8.13486 12.9454C8.38063 12.3949 8.76875 11.7998 9.38234 11.3417C10.0075 10.8749 10.8093 10.5938 11.7975 10.5938H18.1156L18.2445 10.5953C18.2805 10.5966 18.3283 10.5991 18.3863 10.6038C18.5019 10.613 18.6599 10.6309 18.8466 10.6658C19.216 10.7347 19.7204 10.8742 20.2342 11.162C20.7536 11.4529 21.286 11.8977 21.6845 12.5672C22.0836 13.2377 22.3172 14.0812 22.3172 15.1204V29.4017C22.3172 29.9299 21.889 30.3581 21.3608 30.3581C20.8327 30.3581 20.4045 29.9299 20.4045 29.4017V15.1204C20.4045 14.3745 20.2395 13.8791 20.041 13.5455C19.8417 13.2107 19.5772 12.9862 19.2997 12.8308C19.0165 12.6722 18.7239 12.5886 18.4956 12.546C18.3835 12.525 18.2925 12.5151 18.2337 12.5104C18.2113 12.5086 18.1889 12.5071 18.1664 12.5064H11.7975C11.1917 12.5064 10.7981 12.6716 10.5267 12.8742C10.2437 13.0855 10.0341 13.383 9.8814 13.7251C9.72824 14.0682 9.64693 14.4242 9.60539 14.7033C9.58498 14.8405 9.57506 14.953 9.57028 15.0279C9.5679 15.0652 9.56683 15.0927 9.56635 15.1088L9.566 15.1239Z" fill="#66408D"/>
</svg>
